<mxfile host="Electron" modified="2023-05-29T02:53:21.831Z" agent="Mozilla/5.0 (X11; Linux x86_64) AppleWebKit/537.36 (KHTML, like Gecko) draw.io/21.2.8 Chrome/112.0.5615.165 Electron/24.2.0 Safari/537.36" etag="X81BHEghEH9Hh491ELd_" version="21.2.8" type="device">
  <diagram name="Page-1" id="58cdce13-f638-feb5-8d6f-7d28b1aa9fa0">
    <mxGraphModel dx="1687" dy="973" grid="1" gridSize="10" guides="1" tooltips="1" connect="1" arrows="1" fold="1" page="1" pageScale="1" pageWidth="1100" pageHeight="850" background="none" math="0" shadow="0">
      <root>
        <mxCell id="0" />
        <mxCell id="1" parent="0" />
        <mxCell id="x3ULWK2paoiCo0BF2PzE-5" value="&lt;font style=&quot;font-size: 22px;&quot;&gt;WaylandServer&lt;/font&gt;" style="shape=umlFrame;whiteSpace=wrap;html=1;pointerEvents=0;width=180;height=40;" parent="1" vertex="1">
          <mxGeometry x="270" y="100" width="440" height="190" as="geometry" />
        </mxCell>
        <mxCell id="4UITMxDp7easy5LX8VPB-15" value="&lt;font style=&quot;font-size: 22px;&quot;&gt;streamWindow&lt;br&gt;&lt;/font&gt;" style="html=1;whiteSpace=wrap;rounded=1;fillColor=#FFFFC0;strokeColor=#FF0000;" parent="1" vertex="1">
          <mxGeometry x="290" y="210" width="180" height="50" as="geometry" />
        </mxCell>
        <mxCell id="wE0WCRXf-tqNUsHMLNr1-4" value="&lt;font style=&quot;font-size: 22px;&quot;&gt;streamOutput&lt;br&gt;&lt;/font&gt;" style="html=1;whiteSpace=wrap;rounded=1;fillColor=#FFFFC0;strokeColor=#FF0000;" parent="1" vertex="1">
          <mxGeometry x="510" y="210" width="180" height="50" as="geometry" />
        </mxCell>
        <mxCell id="0wGmUprH6FrKQtxT1aWa-1" style="edgeStyle=orthogonalEdgeStyle;curved=1;rounded=0;orthogonalLoop=1;jettySize=auto;html=1;exitX=0.477;exitY=1.011;exitDx=0;exitDy=0;entryX=0.507;entryY=-0.011;entryDx=0;entryDy=0;entryPerimeter=0;exitPerimeter=0;strokeColor=#FF0000;" edge="1" parent="1" source="x3ULWK2paoiCo0BF2PzE-5" target="0wGmUprH6FrKQtxT1aWa-2">
          <mxGeometry relative="1" as="geometry" />
        </mxCell>
        <mxCell id="nNgg-PMRvwAAY9E3oszh-1" value="&lt;font style=&quot;font-size: 22px;&quot;&gt;dmabuf export&lt;/font&gt;" style="text;align=center;fontStyle=1;verticalAlign=middle;spacingLeft=3;spacingRight=3;strokeColor=none;rotatable=0;points=[[0,0.5],[1,0.5]];portConstraint=eastwest;html=1;" parent="1" vertex="1">
          <mxGeometry x="400" y="160" width="200" height="26" as="geometry" />
        </mxCell>
        <mxCell id="nNgg-PMRvwAAY9E3oszh-3" value="&lt;span style=&quot;font-size: 22px;&quot;&gt;dock-preview&lt;/span&gt;" style="shape=umlFrame;whiteSpace=wrap;html=1;pointerEvents=0;width=180;height=40;" parent="1" vertex="1">
          <mxGeometry x="650" y="440" width="440" height="190" as="geometry" />
        </mxCell>
        <mxCell id="nNgg-PMRvwAAY9E3oszh-4" value="&lt;font style=&quot;font-size: 22px;&quot;&gt;TextureItem&lt;br&gt;&lt;/font&gt;" style="html=1;whiteSpace=wrap;rounded=1;fillColor=#FFFFC0;strokeColor=#FF0000;" parent="1" vertex="1">
          <mxGeometry x="900" y="550" width="180" height="50" as="geometry" />
        </mxCell>
        <mxCell id="nNgg-PMRvwAAY9E3oszh-5" value="&lt;font style=&quot;font-size: 22px;&quot;&gt;streamWindow&lt;br&gt;&lt;/font&gt;" style="html=1;whiteSpace=wrap;rounded=1;fillColor=#FFFFC0;strokeColor=#FF0000;" parent="1" vertex="1">
          <mxGeometry x="680" y="550" width="180" height="50" as="geometry" />
        </mxCell>
        <mxCell id="nNgg-PMRvwAAY9E3oszh-6" value="&lt;span style=&quot;font-size: 22px;&quot;&gt;show osgtexture&lt;/span&gt;" style="text;align=center;fontStyle=1;verticalAlign=middle;spacingLeft=3;spacingRight=3;strokeColor=none;rotatable=0;points=[[0,0.5],[1,0.5]];portConstraint=eastwest;html=1;" parent="1" vertex="1">
          <mxGeometry x="780" y="500" width="200" height="26" as="geometry" />
        </mxCell>
        <mxCell id="0wGmUprH6FrKQtxT1aWa-2" value="&lt;span style=&quot;font-size: 22px;&quot;&gt;lib&lt;/span&gt;" style="shape=umlFrame;whiteSpace=wrap;html=1;pointerEvents=0;width=180;height=40;" vertex="1" parent="1">
          <mxGeometry x="20" y="440" width="440" height="110" as="geometry" />
        </mxCell>
        <mxCell id="0wGmUprH6FrKQtxT1aWa-5" value="&lt;span style=&quot;font-size: 22px;&quot;&gt;importas dmabuf as Texture&lt;/span&gt;" style="text;align=center;fontStyle=1;verticalAlign=middle;spacingLeft=3;spacingRight=3;strokeColor=none;rotatable=0;points=[[0,0.5],[1,0.5]];portConstraint=eastwest;html=1;" vertex="1" parent="1">
          <mxGeometry x="60" y="500" width="360" height="26" as="geometry" />
        </mxCell>
        <mxCell id="0wGmUprH6FrKQtxT1aWa-6" style="edgeStyle=orthogonalEdgeStyle;curved=1;rounded=0;orthogonalLoop=1;jettySize=auto;html=1;exitX=1;exitY=0.532;exitDx=0;exitDy=0;entryX=0.001;entryY=0.405;entryDx=0;entryDy=0;entryPerimeter=0;exitPerimeter=0;strokeColor=#FF0000;" edge="1" parent="1" source="0wGmUprH6FrKQtxT1aWa-2" target="nNgg-PMRvwAAY9E3oszh-3">
          <mxGeometry relative="1" as="geometry">
            <mxPoint x="500" y="212" as="sourcePoint" />
            <mxPoint x="253" y="448" as="targetPoint" />
          </mxGeometry>
        </mxCell>
      </root>
    </mxGraphModel>
  </diagram>
</mxfile>
